<?xml version="1.0" encoding="UTF-8"?>
<svg id="Layer_2" xmlns="http://www.w3.org/2000/svg" viewBox="0 0 99.11 69.5">
  <defs>
    <style>
      .cls-1 {
        fill-rule: evenodd;
      }
    </style>
  </defs>
  <g id="Layer_18">
    <g id="Paloma_Text">
      <g>
        <path d="M11.38,22.52c-.08-.1-.17-.18-.26-.28-1.15-1.23-2.67-2.01-4.39-2.08-2.16,0-4.31-.02-6.47-.03.44.71.87,1.4,1.3,2.07-.11,7.9-.21,15.83-.3,23.78-.4.92-.78,1.86-1.16,2.83.37.46.75.9,1.11,1.33-.06,5.14-.12,10.29-.18,15.45-.35,1.1-.7,2.22-1.03,3.37.59-.77,1.21-1.51,1.83-2.25.02-.02.04-.04.06-.07,1.01-1.2,2.05-2.37,3.13-3.47-.02-.01-.03-.02-.05-.04,0-.07,0-.14,0-.22-.29-.21-.59-.43-.88-.66.13-4.5.27-8.99.4-13.48.4-.26.81-.52,1.22-.77,3.54-2.34,6.89-7.72,7.21-12.46.14-2.2.28-4.39.42-6.59.17-2.54-.6-4.83-1.96-6.45ZM4.66,43.27c.18-5.89.36-11.76.54-17.63.44-.05.89-.1,1.34-.14.92-.08,1.72.36,2.28,1.12.04.05.08.1.11.15.49.74.76,1.73.7,2.86-.12,2.36-.24,4.73-.36,7.09-.13,2.44-1.66,5.06-3.37,5.93-.09.04-.18.09-.27.14-.02,0-.03.02-.05.03-.31.15-.61.3-.92.46Z"/>
        <path d="M60.35,36.37c.46-.31.7-.56,1.15-.87-.48-.44-.63-.72-1.15-1.29-.11-2.9.11-6.61,0-9.52-.04-.93-.44-1.82-1.06-2.58-.09-.1-.19-.2-.28-.3-1.35-1.44-3.52-2.41-5.67-2.4-3.39,0-6.6,2.04-6.67,4.78-.05,2.77.05,6.6,0,9.38-.48.36-.7.7-1.19,1.07.4.3.66.48,1.02.75,0,0,0,0,0,0,.05.04.1.08.16.12,0,.05,0,.1,0,.15,0,.03,0,.06,0,.08.03,1.43.14,3.27.18,4.61-.03,1.23.55,2.24,1.55,2.99.06.04.12.08.18.12,1.23.85,3.01,1.33,5.04,1.35,3.94.04,6.72-1.46,6.67-4.22-.05-1.39.11-2.84.05-4.24ZM56.14,39.87c.03,1.08-.92,1.9-2.55,1.89-.53,0-1.02-.15-1.43-.37-.04-.02-.08-.04-.12-.06-.65-.39-1.08-1-1.08-1.63,0-4.82,0-10.51,0-15.33,0-1.06,1.08-1.9,2.41-1.88,1.12.01,2.29.42,2.64,1.19.01.03.04.06.05.09.04.12.07.24.07.37.12,4.91.18,10.76,0,15.73Z"/>
        <path d="M83.17,53.65c-.12-3.71-.23-7.42-.35-11.13.41-.31.82-.62,1.23-.95-.44-.7-.88-1.39-1.33-2.06-.18-5.76-.35-11.53-.53-17.32.22-.27.44-.57.67-.87.01-.01.02-.03.03-.04.22-.29.44-.59.65-.85-1.95,0-3.15.07-5.18.11-1.45,2.06-2.9,3.95-4.36,5.71-.01.02-.03.04-.04.05-.04.04-.07.09-.11.13-1.42-1.9-2.84-3.67-4.24-5.36-.01-.01-.02-.03-.04-.04-.23-.28-.46-.56-.7-.83-1.69-.02-3.33,0-5.11-.03.36.31.71.55,1.07.84.02.02.04.03.06.04.07.06.15.12.22.19,0,.04,0,.07,0,.11,0,.03,0,.06,0,.09.11,4.38.21,8.76.32,13.13-.45.3-.9.6-1.36.89.47.47.94.94,1.42,1.43.07,2.86.14,5.72.2,8.58-.47.25-.94.49-1.41.74.53.15,1.06.33,1.58.49,0,0,.01,0,.02,0,1.78.55,3.56,1.16,5.29,1.87-.48-.6-.96-1.19-1.44-1.77-.22-6.94-.45-13.9-.68-20.88.29.36.59.74.88,1.11.02.02.04.05.06.07.51.65,1.03,1.31,1.54,1.99.84,1.11,1.69,2.26,2.53,3.46.05-.05.09-.1.14-.15.02-.02.03-.03.05-.05.71-.77,1.41-1.57,2.11-2.4.75-.89,1.49-1.81,2.23-2.78.02.64.05,1.27.07,1.9,0,0,0,.01,0,.02.27,7.45.54,14.87.81,22.27-.42.22-.84.42-1.26.63.4.23.78.48,1.17.71,0,0,.01,0,.02,0,1.73,1.03,3.42,2.14,5.06,3.35-.43-.82-.86-1.62-1.3-2.41Z"/>
        <path d="M93.98,63.46c1.8,1.87,3.52,3.89,5.13,6.04-.04-.13-.09-.25-.13-.38-.03-.09-.06-.17-.08-.26-.31-.96-.62-1.92-.94-2.84-.38-5.54-.79-10.94-1.23-16.2.32-.44.65-.89.97-1.36-.44-.98-.88-1.93-1.34-2.85-.71-8-1.49-15.69-2.34-23.08.01,0,.03,0,.04,0,.19-.34.39-.7.58-1.05,0-.01.02-.03.02-.04.15-.27.3-.54.45-.82-2.14-.03-4.28-.06-6.42-.09.39.58.77,1.17,1.16,1.78.01,0,.03,0,.04,0-.47,6.73-.89,13.16-1.29,19.31-.45.35-.9.68-1.36,1.01.39.71.77,1.44,1.15,2.18-.25,3.93-.49,7.74-.72,11.44-.44.17-.88.34-1.33.5.34.26.67.54,1.01.8,0,0,.01.01.02.02,1.37,1.07,2.72,2.19,4.02,3.39.25.22.51.45.76.68-.33-.88-.67-1.75-1.01-2.6-.01-.01-.02-.02-.04-.03.14-2.2.28-4.44.43-6.72.85.61,1.69,1.24,2.51,1.89,0,.05,0,.1.01.15,0,.03,0,.06,0,.09.27,2.68.54,5.4.8,8.16-.01-.01-.02-.02-.03-.03-.29.32-.58.63-.88.94ZM91.87,47.48c.18-2.68.36-5.41.56-8.2.2,1.68.39,3.39.59,5.1.01.09.02.19.03.28.14,1.26.28,2.53.42,3.81-.22-.14-.43-.27-.65-.4-.02,0-.03-.02-.05-.03-.3-.19-.6-.38-.9-.56Z"/>
        <path d="M27.39,48.11s-.04-.02-.06-.02c-.28-.11-.55-.23-.83-.34-.23-2.94-.7-5.99-.91-9.05.35-.43.86-.83,1.27-1.24.02-.02.03-.03.04-.05.08-.08.16-.16.22-.24-.25-.15-.6-.32-.95-.5-.02,0-.04-.02-.06-.03-.31-.15-.61-.31-.83-.44-.26-2.25-.44-4.16-.59-5.98-2.54-.15-4.4-1.08-4.97-2.44-.12-.28-.19-.58-.19-.9,0-.55.16-1.06.43-1.54.78-1.4,2.5-2.48,4.01-3.15-.02-.21-.04-.43-.07-.65,0,0,.2-.2.43-.45.01-.01.03-.03.04-.04.26-.28.57-.61.78-.83-2.14,0-5.16,0-7.31-.01.2.3.72.8,1.08,1.13.22.2.38.34.38.34,0,.02,0,.04,0,.05-.66,6.98-.9,9.45-2.11,16.99-.53.66-1.07,1.35-1.6,2.05.33.37.67.72,1,1.07-.73,3.9-1.46,7.91-2.18,12.03-.52.81-1.03,1.65-1.54,2.51.79-.57,1.6-1.11,2.42-1.64.02-.01.03-.02.05-.03,1.21-.79,2.45-1.56,3.7-2.26.02-.01.04-.02.06-.04,0,0,0,0,0,0-.01,0-.03.01-.04.02,0-.03.01-.07.02-.1-.01-.01-.02-.02-.04-.03-.29-.24-.58-.48-.87-.73-.01,0-.03.01-.04.02.41-2.12.82-4.21,1.24-6.27.95-.41,1.9-.8,2.86-1.17.02.4.05.79.07,1.19,0,0,0,.01,0,.02.08,1.34.16,2.68.25,4-.01,0-.03.01-.04.02-.41.62-.83,1.25-1.24,1.89.69-.35,1.39-.66,2.09-.98.01,0,.02,0,.03-.01,1.31-.6,2.64-1.16,3.98-1.67.02,0,.04-.02.06-.03.19-.07.37-.15.55-.22-.2-.08-.41-.17-.61-.25ZM21.37,40.69s-.03.01-.05.02c-.36.12-.72.24-1.08.37.47-2.78.68-4.43,1.06-7.5.18,1.51.32,2.87.45,4.22,0,.07.01.13.02.2.08.82.16,1.64.25,2.48-.22.07-.43.15-.65.22Z"/>
        <path d="M43.65,42.05s0,0,0-.01c-.03-.07-.06-.13-.1-.2-.17-.34-.33-.69-.49-1.03-.32.39-.64.78-.96,1.18-1.81.2-3.42.44-5.14.77-.02,0-.03,0-.05,0-.29.06-.58.11-.89.17,0-2.45.15-4.09.15-6.26.43-.39.86-.78,1.29-1.16.02-.01.03-.03.05-.04-.12-.08-.25-.17-.36-.25,0-.07,0-.14,0-.21-.02-.01-.03-.02-.05-.03-.3-.2-.61-.39-.88-.59,0-4.63.1-8.43.1-13.02.11-.09.21-.17.32-.26.02-.01.04-.03.05-.04.34-.28.69-.56,1.03-.83-.72,0-1.43,0-2.15,0,.38.54.61,1.16.61,1.89,0,2.37-1.56,4.46-3.75,5.93-.04,2.25-.09,4.49-.09,6.94-.49.47-.98.96-1.48,1.45.34.25.68.49,1.03.73.09.06.18.13.27.19,0,.09,0,.17,0,.25,0,3.06.1,5.63-.12,8.49-.51.54-1.57,1.15-2.08,1.71.98-.33,1.97-.62,2.96-.9.02,0,.03,0,.05-.01,3.94-1.1,7.97-1.81,12.03-2.12-.45-.91-.9-1.83-1.34-2.74Z"/>
        <path d="M24.49,27.79c-.08-.97-.16-1.95-.26-2.96,0,0,0,0,0,0-.49.49-.85,1.08-.85,1.76,0,.54.41.96,1.11,1.21,0,0,0,0,0,0Z"/>
        <path d="M32.51,21.85c0,1.16-.01,2.27-.03,3.36.46-.61.75-1.29.75-2.04,0-.49-.27-.92-.72-1.32Z"/>
      </g>
    </g>
    <path d="M33.81,12.47c-.93,0-1.3-.34-1.6-.61-.2-.18-.38-.35-.67-.35h0c-.47.02-.86.36-.96.86,0,.54.63,1.16,2.39,1.16,5.37,0,11.27-5.13,11.27-9.81,0-2.33-1.87-3.72-4.99-3.72-6.71,0-17.07,5.41-17.07,12.59,0,3.7,3.64,5.36,6.85,6.82,2.49,1.13,4.63,2.11,4.63,3.75,0,3.26-4.46,5.34-7.54,5.34-1.96,0-3.23-.75-3.23-1.92,0-2.06,2.62-3.31,3.44-3.65.28-.14.54-.27.54-.6-.02-.22-.21-.39-.45-.39h0c-.32,0-.88.13-1.53.37-.28.1-.58.23-.88.37-1.87.86-4.03,2.4-4.03,4.21,0,1.71,2.24,2.9,5.44,2.9h0c4.75,0,10.27-3.36,10.27-7.66,0-2.17-2.34-3.26-4.83-4.41-2.69-1.25-5.47-2.54-5.47-5.28,0-5.97,7.88-11.09,14.34-11.09,2.04,0,3.3,1.03,3.3,2.7,0,4.06-5.41,8.42-9.21,8.42Z"/>
    <path class="cls-1" d="M50.91,10.54c.15,0,.25-.1.33-.17.13-.12.32-.31.9-.31.41,0,.85.17,1.31.34.48.19.98.38,1.5.4h0s.09,0,.09,0c.82-.05,1.56-.57,1.87-1.33l.02-.04v-.05c0-.28-.19-.38-.34-.38-.13,0-.22.08-.33.17-.17.14-.43.35-.89.35-.65,0-1.11-.21-1.56-.41-.41-.19-.81-.37-1.32-.37h0c-.84.06-1.58.56-1.94,1.32l-.02.04v.04c-.01.1.01.19.08.27.06.08.15.12.3.13Z"/>
    <path class="cls-1" d="M75.13,13.86l-.18.17c-1.77,1.66-3.23,2.76-4.6,2.76h-.07c-.19,0-.35-.14-.37-.32,0-.49.16-.82.3-1.11.11-.24.22-.46.22-.71,0-.57-.39-.8-.74-1-.24-.14-.48-.28-.63-.53.6-.72.88-1.24.88-1.61.04-.49-.33-.91-.81-.95h-.09c-.91,0-2.02.82-2.02,1.81.03.42.23.8.54,1.07l-.02.03-.02-.02-.13.23-.43.59c-.29.32-.57.52-.82.56-.46,0-.91-.15-1.27-.44.17-.55.29-1.12.33-1.7.01-.33-.11-.65-.33-.89-.23-.24-.53-.38-.93-.39-.26.03-.51.1-.74.22-2.19.03-4.34,1.77-4.71,3.8-1.06.75-1.97,1.14-2.7,1.14-.67,0-1.07-.33-1.07-.88,0-.46.18-.85.38-1.27.2-.42.4-.86.4-1.36,0-.31-.11-.61-.33-.84-.22-.23-.51-.36-.83-.36h-.08c-.99,0-2.44.88-4.53,2.73.02-.03.04-.07.07-.1.57-.89,1.17-1.82,1.17-2.38-.06-.67-.6-1.17-1.27-1.18-.62,0-.78.56-.9.96-.02.07-.04.13-.06.19-.18.48-.55,1.06-.94,1.67-.35.55-.7,1.11-.94,1.63-1.35.9-2.65,1.37-3.8,1.37-.04,0-.09,0-.13,0-.73,0-1.34-.55-1.4-1.28,0-.02,0-.04,0-.06,1.57-.51,4.02-1.53,4.02-2.88,0-.82-.56-1.31-1.5-1.31-1.73,0-4.91,1.78-4.91,4.31,0,1.4,1.13,2.24,3.02,2.24,1.51,0,2.96-.42,4.42-1.27.01.65.54,1.18,1.2,1.2.38,0,.58-.27.85-.65.17-.24.39-.55.73-.9,1.89-2.01,3.54-2.9,3.86-2.9.05,0,.09.04.09.14,0,.22-.13.5-.29.82-.22.45-.49,1.01-.49,1.67,0,1.14.87,1.79,2.39,1.79,1.11,0,2.27-.41,3.54-1.26.13.91.82,1.48,1.85,1.48,1.52,0,3.19-1.12,4.16-2.74.45.31.99.48,1.55.48h.07c.6,0,1.04-.41,1.34-.78l.72-.93s.07.06.1.08c.27.22.31.27.31.44,0,.29-.17.58-.35.89-.22.38-.47.81-.47,1.33,0,.84.74,1.42,1.79,1.42,1.99,0,4.33-1.99,5.92-3.48l.16-.15-.48-.58ZM61.16,16.83h-.03c-.33-.02-.6-.31-.59-.64v-.09c0-1.22,1.3-2.93,2.53-3.43.06.7.33,1.38.76,1.94-.68,1.28-1.94,2.23-2.66,2.23ZM44.54,12.57c0,.6-1.55,1.59-2.89,2.03.42-1.13,1.69-2.17,2.75-2.17.08,0,.14.06.14.14Z"/>
  </g>
</svg>